<?xml version="1.0" encoding="iso-8859-1"?>
<!-- Uploaded to: SVG Repo, www.svgrepo.com, Generator: SVG Repo Mixer Tools -->
<!DOCTYPE svg PUBLIC "-//W3C//DTD SVG 1.1//EN" "http://www.w3.org/Graphics/SVG/1.1/DTD/svg11.dtd">
<svg fill="#000000" height="800px" width="800px" version="1.1" id="Capa_1" xmlns="http://www.w3.org/2000/svg" xmlns:xlink="http://www.w3.org/1999/xlink" 
	 viewBox="0 0 297 297" xml:space="preserve">
<g>
	<path d="M281.674,162.414c-8.633-11.406-6.067-33.608-3.615-39.22c3.379-7.733,3.924-10.624,3.768-14.891
		c-0.011-0.298-0.024-0.614-0.024-0.975c0-12.326-9.463-25.63-24.753-25.63s-24.753,13.304-24.753,25.63
		c0,0.361-0.014,0.677-0.024,0.975c-0.157,4.267,0.388,7.159,3.768,14.891c1.802,4.123,3.657,17.192,1.094,28.362
		c-1.358-2.17-2.814-4.293-4.383-6.366c-10.439-13.795-7.823-40.116-4.451-47.834c4.097-9.375,4.468-12.467,4.307-16.851
		c-0.014-0.368-0.029-0.76-0.029-1.208c0-13.756-10.542-28.605-27.571-28.605s-27.571,14.848-27.571,28.605
		c0,0.448-0.016,0.84-0.029,1.208c-0.162,4.385,0.21,7.477,4.308,16.851c2.109,4.826,3.914,16.921,2.423,28.681
		c-1.125-1.683-2.285-3.349-3.52-4.981c-13.095-17.302-9.841-50.246-5.623-59.9c4.83-11.055,5.252-14.46,5.063-19.596
		c-0.018-0.467-0.037-0.965-0.037-1.534c0-15.761-12.051-32.773-31.52-32.773s-31.52,17.012-31.52,32.773
		c0,0.568-0.019,1.067-0.037,1.534c-0.189,5.136,0.233,8.542,5.063,19.596c4.218,9.654,7.472,42.598-5.623,59.9
		c-1.236,1.633-2.396,3.299-3.521,4.983c-1.49-11.761,0.316-23.857,2.424-28.682c4.098-9.376,4.469-12.468,4.308-16.852
		c-0.014-0.368-0.029-0.76-0.029-1.208c0-13.756-10.542-28.605-27.571-28.605S64.423,65.54,64.423,79.296
		c0,0.448-0.016,0.84-0.029,1.208c-0.162,4.385,0.21,7.477,4.307,16.851c3.372,7.718,5.989,34.039-4.45,47.833
		c-1.569,2.074-3.026,4.197-4.384,6.368c-2.563-11.169-0.708-24.239,1.093-28.362c3.379-7.733,3.924-10.624,3.768-14.891
		c-0.011-0.298-0.024-0.614-0.024-0.975c0-12.326-9.463-25.63-24.753-25.63s-24.753,13.304-24.753,25.63
		c0,0.361-0.014,0.677-0.024,0.975c-0.157,4.267,0.388,7.159,3.768,14.891c2.453,5.612,5.018,27.814-3.615,39.22
		C5.013,176.042,0,192.01,0,211.23c0,20.103,7.713,47.491,16.506,58.61c1.701,2.152,4.293,3.406,7.036,3.406h32.817
		c2.743,0,5.335-1.255,7.036-3.406c0.371-0.47,0.74-0.978,1.106-1.504c0.371,0.524,0.743,1.031,1.118,1.504
		c1.701,2.152,4.293,3.406,7.036,3.406h30.036c12.455,10.302,28.421,16.5,45.809,16.5s33.354-6.198,45.809-16.5h30.036
		c2.743,0,5.335-1.255,7.036-3.406c0.374-0.474,0.747-0.981,1.118-1.504c0.367,0.526,0.735,1.035,1.106,1.504
		c1.701,2.152,4.293,3.406,7.036,3.406h32.817c2.743,0,5.335-1.255,7.036-3.406C289.287,258.722,297,231.333,297,211.23
		C297,192.01,291.987,176.042,281.674,162.414z M250.201,108.963c0.018-0.498,0.036-1.029,0.036-1.635
		c0-2.054,1.615-7.69,6.813-7.69c5.198,0,6.813,5.636,6.813,7.69c0,0.606,0.018,1.137,0.036,1.635
		c0.036,0.982,0.062,1.692-2.278,7.049c-0.917,2.099-1.742,4.803-2.396,7.923h-4.349c-0.654-3.12-1.479-5.824-2.396-7.923
		C250.138,110.655,250.165,109.945,250.201,108.963z M195.333,81.164c0.021-0.569,0.042-1.176,0.042-1.868
		c0-2.848,2.282-10.665,9.632-10.665c7.349,0,9.632,7.817,9.632,10.665c0,0.692,0.02,1.298,0.042,1.868
		c0.054,1.472,0.087,2.359-2.819,9.009c-1.279,2.928-2.561,7.629-3.42,13.337h-6.869c-0.859-5.708-2.14-10.41-3.42-13.338
		C195.246,83.522,195.279,82.635,195.333,81.164z M134.87,42.221c0.025-0.67,0.05-1.381,0.05-2.195
		c0-5.173,3.984-14.834,13.58-14.834s13.58,9.661,13.58,14.834c0,0.814,0.024,1.525,0.05,2.195
		c0.075,2.054,0.121,3.294-3.575,11.752c-1.342,3.072-2.687,7.794-3.685,13.528H142.13c-0.999-5.734-2.343-10.456-3.685-13.528
		C134.749,45.515,134.795,44.275,134.87,42.221z M130.689,131.883c6.847-9.048,10.462-20.123,12.04-31.167h11.543
		c1.577,11.044,5.192,22.119,12.04,31.167c4.678,6.181,8.396,12.834,11.181,20.022c-8.876-3.923-18.68-6.119-28.992-6.119
		s-20.115,2.196-28.992,6.119C122.293,144.717,126.011,138.064,130.689,131.883z M82.32,81.164c0.021-0.569,0.042-1.176,0.042-1.868
		c0-2.848,2.282-10.665,9.632-10.665c7.349,0,9.632,7.817,9.632,10.665c0,0.692,0.02,1.298,0.042,1.868
		c0.054,1.471,0.087,2.358-2.82,9.009c-1.279,2.928-2.561,7.629-3.42,13.337h-6.869c-0.859-5.708-2.14-10.409-3.42-13.337
		C82.234,83.523,82.267,82.636,82.32,81.164z M33.101,108.963c0.018-0.498,0.036-1.029,0.036-1.635c0-2.054,1.615-7.69,6.813-7.69
		s6.813,5.636,6.813,7.69c0,0.606,0.018,1.137,0.036,1.635c0.036,0.982,0.062,1.692-2.278,7.049
		c-0.917,2.099-1.742,4.803-2.396,7.923h-4.349c-0.654-3.12-1.479-5.824-2.396-7.923C33.039,110.655,33.065,109.945,33.101,108.963z
		 M51.511,255.307H28.39c-5.157-9.453-10.45-28.811-10.45-44.077c0-15.168,3.824-27.595,11.692-37.989
		c4.424-5.845,7.07-13.041,8.446-20.434h3.746c1.375,7.39,4.02,14.582,8.44,20.426c-2.502,8.774-3.753,18.241-3.753,28.523
		c0,14.34,3.357,31.837,8.298,46.202C53.739,250.774,52.622,253.271,51.511,255.307z M64.45,201.755
		c0-18.238,4.613-33.2,14.105-45.741c4.844-6.401,7.775-14,9.389-21.776h8.099c1.091,5.255,2.786,10.427,5.266,15.205
		c-1.978,5.82-3.477,11.901-4.475,18.28c-12.56,12.964-20.314,30.61-20.314,50.043c0,13.747,3.879,26.603,10.593,37.541H77.44
		C71.1,244.211,64.45,220.399,64.45,201.755z M96.453,217.767c0-28.699,23.348-52.047,52.047-52.047s52.047,23.348,52.047,52.047
		s-23.348,52.047-52.047,52.047S96.453,246.466,96.453,217.767z M219.56,255.307h-9.672c6.713-10.938,10.593-23.793,10.593-37.541
		c0-19.433-7.754-37.079-20.314-50.043c-0.998-6.379-2.497-12.459-4.475-18.28c2.48-4.778,4.175-9.95,5.266-15.206h8.099
		c1.615,7.777,4.545,15.376,9.389,21.777c9.491,12.54,14.105,27.501,14.105,45.74C232.55,220.399,225.9,244.211,219.56,255.307z
		 M268.61,255.307h-23.121c-1.111-2.036-2.228-4.533-3.297-7.35c4.941-14.366,8.298-31.863,8.298-46.202
		c0-10.282-1.251-19.749-3.753-28.523c4.42-5.844,7.065-13.036,8.439-20.425h3.746c1.375,7.393,4.022,14.589,8.446,20.434
		c7.868,10.395,11.692,22.822,11.692,37.989C279.06,226.496,273.768,245.855,268.61,255.307z"/>
	<circle cx="148.5" cy="187.259" r="7.752"/>
	<circle cx="179.507" cy="187.259" r="7.752"/>
	<circle cx="164.003" cy="210.514" r="7.752"/>
</g>
</svg>